<?xml version="1.0" standalone="no"?>
<svg xmlns:xlink="http://www.w3.org/1999/xlink" id="wave" style="transform:rotate(0deg); transition: 0.3s" viewBox="0 0 1440 250" version="1.1" xmlns="http://www.w3.org/2000/svg"><defs><linearGradient id="sw-gradient-0" x1="0" x2="0" y1="1" y2="0"><stop stop-color="rgba(233, 248, 245, 1)" offset="0%"/><stop stop-color="rgba(233, 248, 245, 1)" offset="100%"/></linearGradient></defs><path style="transform:translate(0, 0px); opacity:1" fill="url(#sw-gradient-0)" d="M0,225L30,208.3C60,192,120,158,180,125C240,92,300,58,360,50C420,42,480,58,540,75C600,92,660,108,720,125C780,142,840,158,900,175C960,192,1020,208,1080,212.5C1140,217,1200,208,1260,187.5C1320,167,1380,133,1440,116.7C1500,100,1560,100,1620,120.8C1680,142,1740,183,1800,170.8C1860,158,1920,92,1980,79.2C2040,67,2100,108,2160,125C2220,142,2280,133,2340,120.8C2400,108,2460,92,2520,75C2580,58,2640,42,2700,41.7C2760,42,2820,58,2880,83.3C2940,108,3000,142,3060,150C3120,158,3180,142,3240,137.5C3300,133,3360,142,3420,137.5C3480,133,3540,117,3600,104.2C3660,92,3720,83,3780,70.8C3840,58,3900,42,3960,54.2C4020,67,4080,108,4140,120.8C4200,133,4260,117,4290,108.3L4320,100L4320,250L4290,250C4260,250,4200,250,4140,250C4080,250,4020,250,3960,250C3900,250,3840,250,3780,250C3720,250,3660,250,3600,250C3540,250,3480,250,3420,250C3360,250,3300,250,3240,250C3180,250,3120,250,3060,250C3000,250,2940,250,2880,250C2820,250,2760,250,2700,250C2640,250,2580,250,2520,250C2460,250,2400,250,2340,250C2280,250,2220,250,2160,250C2100,250,2040,250,1980,250C1920,250,1860,250,1800,250C1740,250,1680,250,1620,250C1560,250,1500,250,1440,250C1380,250,1320,250,1260,250C1200,250,1140,250,1080,250C1020,250,960,250,900,250C840,250,780,250,720,250C660,250,600,250,540,250C480,250,420,250,360,250C300,250,240,250,180,250C120,250,60,250,30,250L0,250Z"/></svg>