<svg width="1440" height="60" viewBox="0 0 1440 60" fill="none" xmlns="http://www.w3.org/2000/svg">
<g clip-path="url(#clip0_22_8)">
<path d="M1440 60L1360 49.5C1280 39 1120 18 960 14.52C800 10.8 640 25.2 480 31.98C320 39 160 39 0 25.02C-160 10.8 -320 -16.8 -480 -13.5C-640 -10.2 -800 25.2 -960 28.5C-1120 31.8 -1280 4.2 -1440 -10.02C-1600 -24 -1760 -24 -1920 -34.5C-2080 -45 -2240 -66 -2400 -79.98C-2560 -94.2 -2720 -100.8 -2880 -76.5C-3040 -52.2 -3200 4.2 -3360 31.98C-3520 60 -3680 60 -3840 56.52C-4000 52.8 -4160 46.2 -4320 31.98C-4480 18 -4640 -3 -4800 -16.98C-4960 -31.2 -5120 -37.8 -5280 -34.5C-5440 -31.2 -5600 -16.8 -5760 0.479999C-5920 18 -6080 39 -6240 31.98C-6400 25.2 -6560 -10.2 -6720 -24C-6880 -37.8 -7040 -31.2 -7200 -31.02C-7360 -31.2 -7520 -37.8 -7680 -55.5C-7840 -73.2 -8000 -100.8 -8160 -115.02C-8320 -129 -8480 -129 -8640 -125.52C-8800 -121.8 -8960 -115.2 -9120 -87C-9280 -58.8 -9440 -10.2 -9600 14.52C-9760 39 -9920 39 -10000 39L-10080 39V-150L-10000 -150C-9920 -150 -9760 -150 -9600 -150C-9440 -150 -9280 -150 -9120 -150C-8960 -150 -8800 -150 -8640 -150C-8480 -150 -8320 -150 -8160 -150C-8000 -150 -7840 -150 -7680 -150C-7520 -150 -7360 -150 -7200 -150C-7040 -150 -6880 -150 -6720 -150C-6560 -150 -6400 -150 -6240 -150C-6080 -150 -5920 -150 -5760 -150C-5600 -150 -5440 -150 -5280 -150C-5120 -150 -4960 -150 -4800 -150C-4640 -150 -4480 -150 -4320 -150C-4160 -150 -4000 -150 -3840 -150C-3680 -150 -3520 -150 -3360 -150C-3200 -150 -3040 -150 -2880 -150C-2720 -150 -2560 -150 -2400 -150C-2240 -150 -2080 -150 -1920 -150C-1760 -150 -1600 -150 -1440 -150C-1280 -150 -1120 -150 -960 -150C-800 -150 -640 -150 -480 -150C-320 -150 -160 -150 0 -150C160 -150 320 -150 480 -150C640 -150 800 -150 960 -150C1120 -150 1280 -150 1360 -150H1440V60Z" fill="url(#paint0_linear_22_8)"/>
</g>
<defs>
<linearGradient id="paint0_linear_22_8" x1="1440" y1="-150" x2="1440" y2="60" gradientUnits="userSpaceOnUse">
<stop stop-color="#FFC244"/>
<stop offset="1" stop-color="#FFC244"/>
</linearGradient>
<clipPath id="clip0_22_8">
<rect width="1440" height="60" fill="white" transform="matrix(-1 0 0 -1 1440 60)"/>
</clipPath>
</defs>
</svg>
