<svg width="1440" height="100" viewBox="0 0 1440 100" fill="none" xmlns="http://www.w3.org/2000/svg">
<g clip-path="url(#clip0_22_10)">
<path d="M0 15.0602L60 12.5301C120 10.241 240 4.81927 360 20.0602C480 34.9398 600 70.4819 720 85.3614C840 100.602 960 95.1807 1080 82.8313C1200 70.4819 1320 50 1440 47.7108C1560 45.1807 1680 60.241 1800 65.241C1920 70.4819 2040 65.0602 2160 67.7711C2280 70.4819 2400 80.1205 2520 90.3614C2640 100.602 2760 110.241 2880 110.422C3000 110.241 3120 100.602 3240 97.8916C3360 95.1807 3480 100.602 3600 90.3614C3720 80.1205 3840 55.4217 3960 45.1807C4080 34.9398 4200 40.3614 4320 50.1807C4440 60.241 4560 75.3012 4680 85.3614C4800 95.1807 4920 100.602 5040 107.952C5160 115.663 5280 125.301 5400 110.422C5520 95.1807 5640 55.4217 5760 42.6506C5880 30.1205 6000 45.1807 6120 57.7108C6240 70.4819 6360 80.1205 6480 77.8313C6600 75.3012 6720 60.241 6840 57.7108C6960 55.4217 7080 65.0602 7200 72.7711C7320 80.1205 7440 85.5422 7560 90.3614C7680 95.1807 7800 100.602 7920 92.8916C8040 85.5422 8160 65.0602 8280 55.241C8400 45.1807 8520 45.1807 8580 45.1807H8640V150.602H8580C8520 150.602 8400 150.602 8280 150.602C8160 150.602 8040 150.602 7920 150.602C7800 150.602 7680 150.602 7560 150.602C7440 150.602 7320 150.602 7200 150.602C7080 150.602 6960 150.602 6840 150.602C6720 150.602 6600 150.602 6480 150.602C6360 150.602 6240 150.602 6120 150.602C6000 150.602 5880 150.602 5760 150.602C5640 150.602 5520 150.602 5400 150.602C5280 150.602 5160 150.602 5040 150.602C4920 150.602 4800 150.602 4680 150.602C4560 150.602 4440 150.602 4320 150.602C4200 150.602 4080 150.602 3960 150.602C3840 150.602 3720 150.602 3600 150.602C3480 150.602 3360 150.602 3240 150.602C3120 150.602 3000 150.602 2880 150.602C2760 150.602 2640 150.602 2520 150.602C2400 150.602 2280 150.602 2160 150.602C2040 150.602 1920 150.602 1800 150.602C1680 150.602 1560 150.602 1440 150.602C1320 150.602 1200 150.602 1080 150.602C960 150.602 840 150.602 720 150.602C600 150.602 480 150.602 360 150.602C240 150.602 120 150.602 60 150.602H0L0 15.0602Z" fill="url(#paint0_linear_22_10)"/>
</g>
<defs>
<linearGradient id="paint0_linear_22_10" x1="0" y1="150.602" x2="0" y2="9.69691" gradientUnits="userSpaceOnUse">
<stop stop-color="#FFC244"/>
<stop offset="1" stop-color="#FFC244"/>
</linearGradient>
<clipPath id="clip0_22_10">
<rect width="1440" height="100" fill="white"/>
</clipPath>
</defs>
</svg>
